# xmcd
#
# Track frame offsets:
#	150
#	18155
#	32655
#	46727
#	61007
#	75365
#	94130
#	108382
#	127860
#	143690
#	161985
#	183215
#	200187
#	219615
#	236527
#	266367
#
# Disc length: 3563 seconds
#
# Revision: 1
# Processed by: cddbd v1.5.2PL0 Copyright (c) Steve Scherf et al.
# Submitted via: audiograbber 1.83.01
#
DISCID=cc0de910
DTITLE=BROOKS and DUNN VOL 1 - SC8505 VOL 1
DYEAR=1900
DGENRE=KARAOKE
TTITLE0=ROCK MY WORLD (LITTLE COUNTRY GIRL)
TTITLE1=WE'LL BURN THAT BRIDGE
TTITLE2=MY NEXT BROKEN HEART
TTITLE3=BRAND NEW MAN
TTITLE4=HARD WORKIN' MAN
TTITLE5=SHE USED TO BE MINE
TTITLE6=LITTLE MISS HONKY TONK
TTITLE7=YOU'RE GONNA MISS ME WHEN I'M GONE
TTITLE8=BOOT SCOOTIN' BOOGIE
TTITLE9=HOW LONG GONE
TTITLE10=NEON MOON
TTITLE11=MY MARIA
TTITLE12=LOST AND FOUND
TTITLE13=A MAN THIS LONELY
TTITLE14=SHE'S NOT THE CHEATIN' KIND
TTITLE15=Data Track
EXTD=
EXTT0=
EXTT1=
EXTT2=
EXTT3=
EXTT4=
EXTT5=
EXTT6=
EXTT7=
EXTT8=
EXTT9=
EXTT10=
EXTT11=
EXTT12=
EXTT13=
EXTT14=
EXTT15=
PLAYORDER=
